<?xml version="1.0" encoding="UTF-8" standalone="no"?>
<!-- Created with Inkscape (http://www.inkscape.org/) -->

<svg
   xmlns:dc="http://purl.org/dc/elements/1.1/"
   xmlns:cc="http://creativecommons.org/ns#"
   xmlns:rdf="http://www.w3.org/1999/02/22-rdf-syntax-ns#"
   xmlns:svg="http://www.w3.org/2000/svg"
   xmlns="http://www.w3.org/2000/svg"
   xmlns:sodipodi="http://sodipodi.sourceforge.net/DTD/sodipodi-0.dtd"
   xmlns:inkscape="http://www.inkscape.org/namespaces/inkscape"
   width="210mm"
   height="70mm"
   viewBox="0 0 210 70"
   version="1.1"
   id="svg9220"
   inkscape:version="0.92.1 r15371"
   sodipodi:docname="large_logo.svg">
  <defs
     id="defs9214" />
  <sodipodi:namedview
     id="base"
     pagecolor="#ffffff"
     bordercolor="#666666"
     borderopacity="1.0"
     inkscape:pageopacity="0.0"
     inkscape:pageshadow="2"
     inkscape:zoom="0.49497475"
     inkscape:cx="-650.05802"
     inkscape:cy="653.2243"
     inkscape:document-units="mm"
     inkscape:current-layer="g13746"
     showgrid="false"
     inkscape:window-width="1920"
     inkscape:window-height="1001"
     inkscape:window-x="-9"
     inkscape:window-y="-9"
     inkscape:window-maximized="1" />
  <metadata
     id="metadata9217">
    <rdf:RDF>
      <cc:Work
         rdf:about="">
        <dc:format>image/svg+xml</dc:format>
        <dc:type
           rdf:resource="http://purl.org/dc/dcmitype/StillImage" />
        <dc:title />
      </cc:Work>
    </rdf:RDF>
  </metadata>
  <g
     inkscape:label="Vrstva 1"
     inkscape:groupmode="layer"
     id="layer1"
     transform="translate(0,-227)">
    <g
       id="g13746">
      <g
         inkscape:label="Vrstva 1"
         id="layer1-6"
         transform="matrix(0.39775205,0,0,0.39775205,-1.4169726,180.46311)">
        <g
           id="g6531"
           transform="translate(0,3.6783854e-6)">
          <rect
             rx="19.285713"
             y="125.02081"
             x="13.22916"
             height="158.75"
             width="158.75"
             id="rect4531-0"
             style="opacity:1;fill:#000000;fill-opacity:1;stroke:none;stroke-width:11.90357113;stroke-linecap:round;stroke-linejoin:round;stroke-miterlimit:4;stroke-dasharray:none;stroke-dashoffset:0;stroke-opacity:1;paint-order:stroke fill markers" />
          <g
             style="fill:#ffff00;fill-opacity:0.99215686"
             id="g5261-0-8"
             transform="matrix(2.2607515,0,0,2.2607515,25.990281,126.61792)">
            <g
               style="fill:#ffff00;fill-opacity:0.99215686"
               transform="matrix(-0.36179294,-0.27842047,-0.27842047,0.36179294,73.471869,22.965779)"
               id="g4785-50-8">
              <path
                 sodipodi:nodetypes="cccccc"
                 inkscape:connector-curvature="0"
                 id="rect4779-2-9"
                 transform="scale(0.26458333)"
                 d="m 235.32031,364.15625 -14.91211,1.01563 v 74.40429 h 29.82618 v -74.40429 z"
                 style="opacity:1;fill:#ffff00;fill-opacity:0.99215686;stroke:none;stroke-width:1.98704481;stroke-linecap:round;stroke-linejoin:round;stroke-miterlimit:4;stroke-dasharray:none;stroke-dashoffset:0;stroke-opacity:1;paint-order:stroke fill markers" />
              <path
                 sodipodi:nodetypes="ccccccc"
                 inkscape:connector-curvature="0"
                 id="rect4500-9-2"
                 transform="scale(0.26458333)"
                 d="m 235.32227,78.886719 -27.75,36.000001 3.78515,224.71875 23.96289,1.62891 23.9668,-1.62891 3.78516,-224.71875 z"
                 style="opacity:1;fill:#ffff00;fill-opacity:0.99215686;stroke:none;stroke-width:1.71212602;stroke-linecap:round;stroke-linejoin:round;stroke-miterlimit:4;stroke-dasharray:none;stroke-dashoffset:0;stroke-opacity:1;paint-order:stroke fill markers" />
              <path
                 style="opacity:1;fill:#ffff00;fill-opacity:0.99215686;stroke:none;stroke-width:0.47509792;stroke-linecap:round;stroke-linejoin:round;stroke-miterlimit:4;stroke-dasharray:none;stroke-dashoffset:0;stroke-opacity:1;paint-order:stroke fill markers"
                 d="m 57.277732,117.6426 h 9.96881 l 1.058333,8.00423 H 56.219399 Z"
                 id="rect4508-4-8"
                 inkscape:connector-curvature="0"
                 sodipodi:nodetypes="ccccc" />
              <path
                 style="opacity:1;fill:#ffff00;fill-opacity:0.99215686;stroke:none;stroke-width:0.45300001;stroke-linecap:round;stroke-linejoin:round;stroke-miterlimit:4;stroke-dasharray:none;stroke-dashoffset:0;stroke-opacity:1;paint-order:stroke fill markers"
                 d="m 46.717857,90.568299 15.544281,1.058334 15.544281,-1.058334 v 5.499557 L 62.262138,95.009522 46.717857,96.067856 Z"
                 id="rect4503-3-8"
                 inkscape:connector-curvature="0"
                 sodipodi:nodetypes="ccccccc" />
            </g>
            <g
               aria-label="ZAŽÍT"
               style="font-style:normal;font-variant:normal;font-weight:600;font-stretch:normal;font-size:12.15027618px;line-height:1.25;font-family:'URW Gothic L';-inkscape-font-specification:'URW Gothic L Semi-Bold';letter-spacing:0px;word-spacing:0px;fill:#ffff00;fill-opacity:0.99215686;stroke:none;stroke-width:0.91127062"
               id="text4943-5-8"
               transform="matrix(0.45652173,0,0,0.45652173,-17.49953,10.247184)" />
            <g
               aria-label="HISTORII"
               style="font-style:normal;font-variant:normal;font-weight:600;font-stretch:normal;font-size:12.15027618px;line-height:1.25;font-family:'URW Gothic L';-inkscape-font-specification:'URW Gothic L Semi-Bold';letter-spacing:0px;word-spacing:0px;fill:#ffff00;fill-opacity:0.99215686;stroke:none;stroke-width:0.91127062"
               id="text4943-2-4-3"
               transform="matrix(0.45652173,0,0,0.45652173,-17.49953,10.247184)" />
          </g>
        </g>
      </g>
      <g
         aria-label="ZAŽÍT"
         style="font-style:normal;font-variant:normal;font-weight:normal;font-stretch:normal;font-size:29.4802494px;line-height:1.25;font-family:'Futura Hv BT';-inkscape-font-specification:'Futura Hv BT';letter-spacing:0px;word-spacing:0px;fill:#000000;fill-opacity:1;stroke:none;stroke-width:1.57929933"
         id="text8662">
        <path
           d="m 84.927281,236.46407 h 16.884929 v 2.21678 L 88.223657,255.5082 h 13.919633 v 2.44709 H 84.596204 v -2.21677 L 98.184757,238.91117 H 84.927281 Z"
           style="font-style:normal;font-variant:normal;font-weight:normal;font-stretch:normal;font-family:'Futura Hv BT';-inkscape-font-specification:'Futura Hv BT';fill:#000000;fill-opacity:1;stroke-width:1.57929933"
           id="path5087" />
        <path
           d="m 113.55825,239.32861 -3.94414,10.69523 h 7.90267 z m -1.64099,-2.86454 h 3.29637 l 8.19056,21.49122 h -3.02288 l -1.95767,-5.51315 h -9.6876 l -1.95768,5.51315 h -3.06606 z"
           style="font-style:normal;font-variant:normal;font-weight:normal;font-stretch:normal;font-family:'Futura Hv BT';-inkscape-font-specification:'Futura Hv BT';fill:#000000;fill-opacity:1;stroke-width:1.57929933"
           id="path5089" />
        <path
           d="m 125.28989,236.46407 h 16.88493 v 2.21678 l -13.58856,16.82735 h 13.91963 v 2.44709 h -17.54708 v -2.21677 l 13.58855,-16.82735 h -13.25747 z m 7.09656,-2.04404 -3.03727,-3.82897 h 2.00086 l 2.38951,2.56224 2.38951,-2.56224 h 2.00086 l -3.03727,3.82897 z"
           style="font-style:normal;font-variant:normal;font-weight:normal;font-stretch:normal;font-family:'Futura Hv BT';-inkscape-font-specification:'Futura Hv BT';fill:#000000;fill-opacity:1;stroke-width:1.57929933"
           id="path5091" />
        <path
           d="m 146.73792,236.46407 h 2.90772 v 21.49122 h -2.90772 z m 2.25996,-5.84422 h 2.66301 l -3.28198,3.80018 h -2.20238 z"
           style="font-style:normal;font-variant:normal;font-weight:normal;font-stretch:normal;font-family:'Futura Hv BT';-inkscape-font-specification:'Futura Hv BT';fill:#000000;fill-opacity:1;stroke-width:1.57929933"
           id="path5093" />
        <path
           d="m 152.4526,236.46407 h 18.18044 v 2.4471 h -7.62916 v 19.04412 h -2.92212 v -19.04412 h -7.62916 z"
           style="font-style:normal;font-variant:normal;font-weight:normal;font-stretch:normal;font-family:'Futura Hv BT';-inkscape-font-specification:'Futura Hv BT';fill:#000000;fill-opacity:1;stroke-width:1.57929933"
           id="path5095" />
      </g>
      <g
         aria-label="HISTORII"
         style="font-style:normal;font-variant:normal;font-weight:normal;font-stretch:normal;font-size:29.4802494px;line-height:1.25;font-family:'Futura Hv BT';-inkscape-font-specification:'Futura Hv BT';letter-spacing:0px;word-spacing:0px;fill:#000000;fill-opacity:1;stroke:none;stroke-width:1.57929933"
         id="text8662-3">
        <path
           d="m 83.890861,265.09216 h 2.90772 v 8.80952 h 10.565675 v -8.80952 h 2.907724 v 21.49121 H 97.364256 V 276.34878 H 86.798581 v 10.23459 h -2.90772 z"
           style="font-style:normal;font-variant:normal;font-weight:normal;font-stretch:normal;font-family:'Futura Hv BT';-inkscape-font-specification:'Futura Hv BT';fill:#000000;fill-opacity:1;stroke-width:1.57929933"
           id="path5070" />
        <path
           d="m 106.05863,265.09216 h 2.90772 v 21.49121 h -2.90772 z"
           style="font-style:normal;font-variant:normal;font-weight:normal;font-stretch:normal;font-family:'Futura Hv BT';-inkscape-font-specification:'Futura Hv BT';fill:#000000;fill-opacity:1;stroke-width:1.57929933"
           id="path5072" />
        <path
           d="m 127.63621,265.7975 v 2.83574 q -1.65538,-0.7917 -3.12364,-1.18036 -1.46825,-0.38866 -2.83574,-0.38866 -2.37512,0 -3.67064,0.92126 -1.28112,0.92126 -1.28112,2.61983 0,1.42507 0.84928,2.1592 0.86368,0.71973 3.25319,1.16596 l 1.75615,0.35987 q 3.25319,0.61897 4.79342,2.18799 1.55462,1.55462 1.55462,4.17445 0,3.12364 -2.10162,4.73584 -2.08722,1.6122 -6.13212,1.6122 -1.52583,0 -3.25319,-0.34547 -1.71297,-0.34547 -3.55548,-1.02202 v -2.99409 q 1.77054,0.99323 3.46911,1.49704 1.69857,0.50382 3.33956,0.50382 2.49027,0 3.84337,-0.97884 1.3531,-0.97884 1.3531,-2.79256 0,-1.58342 -0.97884,-2.47588 -0.96444,-0.89247 -3.18122,-1.33871 l -1.77054,-0.34547 q -3.25319,-0.64776 -4.70705,-2.02964 -1.45386,-1.38189 -1.45386,-3.84338 0,-2.85014 2.00086,-4.49113 2.01525,-1.64099 5.54194,-1.64099 1.51144,0 3.08045,0.2735 1.56902,0.2735 3.21001,0.8205 z"
           style="font-style:normal;font-variant:normal;font-weight:normal;font-stretch:normal;font-family:'Futura Hv BT';-inkscape-font-specification:'Futura Hv BT';fill:#000000;fill-opacity:1;stroke-width:1.57929933"
           id="path5074" />
        <path
           d="m 130.48636,265.09216 h 18.18044 v 2.44709 h -7.62916 v 19.04412 h -2.92212 v -19.04412 h -7.62916 z"
           style="font-style:normal;font-variant:normal;font-weight:normal;font-stretch:normal;font-family:'Futura Hv BT';-inkscape-font-specification:'Futura Hv BT';fill:#000000;fill-opacity:1;stroke-width:1.57929933"
           id="path5076" />
        <path
           d="m 160.21131,267.06422 q -3.16682,0 -5.03813,2.36073 -1.85691,2.36072 -1.85691,6.43441 0,4.05929 1.85691,6.42001 1.87131,2.36073 5.03813,2.36073 3.16682,0 5.00934,-2.36073 1.85691,-2.36072 1.85691,-6.42001 0,-4.07369 -1.85691,-6.43441 -1.84252,-2.36073 -5.00934,-2.36073 z m 0,-2.36072 q 4.51992,0 7.22612,3.03727 2.70619,3.02288 2.70619,8.11859 0,5.08131 -2.70619,8.11858 -2.7062,3.02288 -7.22612,3.02288 -4.53431,0 -7.2549,-3.02288 -2.7062,-3.02288 -2.7062,-8.11858 0,-5.09571 2.7062,-8.11859 2.72059,-3.03727 7.2549,-3.03727 z"
           style="font-style:normal;font-variant:normal;font-weight:normal;font-stretch:normal;font-family:'Futura Hv BT';-inkscape-font-specification:'Futura Hv BT';fill:#000000;fill-opacity:1;stroke-width:1.57929933"
           id="path5078" />
        <path
           d="m 184.88374,276.50712 q 0.93566,0.31668 1.81373,1.35309 0.89247,1.03642 1.78494,2.85015 l 2.9509,5.87301 h -3.12364 l -2.74938,-5.51315 q -1.0652,-2.1592 -2.07283,-2.86453 -0.99323,-0.70534 -2.72059,-0.70534 h -3.16682 v 9.08302 h -2.90772 v -21.49121 h 6.56396 q 3.68503,0 5.49876,1.54022 1.81372,1.54023 1.81372,4.64948 0,2.02964 -0.95004,3.36835 -0.93566,1.3387 -2.73499,1.85691 z m -7.28369,-9.02545 v 7.62917 h 3.65624 q 2.10162,0 3.16682,-0.96445 1.0796,-0.97883 1.0796,-2.86453 0,-1.8857 -1.0796,-2.83575 -1.0652,-0.96444 -3.16682,-0.96444 z"
           style="font-style:normal;font-variant:normal;font-weight:normal;font-stretch:normal;font-family:'Futura Hv BT';-inkscape-font-specification:'Futura Hv BT';fill:#000000;fill-opacity:1;stroke-width:1.57929933"
           id="path5080" />
        <path
           d="m 195.19031,265.09216 h 2.90772 v 21.49121 h -2.90772 z"
           style="font-style:normal;font-variant:normal;font-weight:normal;font-stretch:normal;font-family:'Futura Hv BT';-inkscape-font-specification:'Futura Hv BT';fill:#000000;fill-opacity:1;stroke-width:1.57929933"
           id="path5082" />
        <path
           d="m 203.88469,265.09216 h 2.90772 v 21.49121 h -2.90772 z"
           style="font-style:normal;font-variant:normal;font-weight:normal;font-stretch:normal;font-family:'Futura Hv BT';-inkscape-font-specification:'Futura Hv BT';fill:#000000;fill-opacity:1;stroke-width:1.57929933"
           id="path5084" />
      </g>
    </g>
  </g>
</svg>
