<?xml version="1.0" encoding="UTF-8" standalone="no"?>
<!-- Created with Inkscape (http://www.inkscape.org/) -->

<svg
   xmlns:dc="http://purl.org/dc/elements/1.1/"
   xmlns:cc="http://creativecommons.org/ns#"
   xmlns:rdf="http://www.w3.org/1999/02/22-rdf-syntax-ns#"
   xmlns:svg="http://www.w3.org/2000/svg"
   xmlns="http://www.w3.org/2000/svg"
   xmlns:sodipodi="http://sodipodi.sourceforge.net/DTD/sodipodi-0.dtd"
   xmlns:inkscape="http://www.inkscape.org/namespaces/inkscape"
   width="210mm"
   height="297mm"
   viewBox="0 0 210 297"
   version="1.1"
   id="svg5472"
   inkscape:version="0.92.1 r15371"
   sodipodi:docname="yellow_logo.svg">
  <defs
     id="defs5466" />
  <sodipodi:namedview
     id="base"
     pagecolor="#ffffff"
     bordercolor="#666666"
     borderopacity="1.0"
     inkscape:pageopacity="0.0"
     inkscape:pageshadow="2"
     inkscape:zoom="0.35"
     inkscape:cx="-265.71429"
     inkscape:cy="560"
     inkscape:document-units="mm"
     inkscape:current-layer="layer1"
     showgrid="false"
     inkscape:window-width="1855"
     inkscape:window-height="1056"
     inkscape:window-x="65"
     inkscape:window-y="24"
     inkscape:window-maximized="1" />
  <metadata
     id="metadata5469">
    <rdf:RDF>
      <cc:Work
         rdf:about="">
        <dc:format>image/svg+xml</dc:format>
        <dc:type
           rdf:resource="http://purl.org/dc/dcmitype/StillImage" />
        <dc:title></dc:title>
      </cc:Work>
    </rdf:RDF>
  </metadata>
  <g
     inkscape:label="Vrstva 1"
     inkscape:groupmode="layer"
     id="layer1">
    <g
       transform="matrix(6.5680502,0,0,6.5680502,-88.481498,-68.092398)"
       id="g5261-0-8"
       style="fill:#ffff00;fill-opacity:0.99215686">
      <g
         id="g4785-50-8"
         transform="matrix(-0.36179294,-0.27842047,-0.27842047,0.36179294,73.471869,22.965779)"
         style="fill:#ffff00;fill-opacity:0.99215686">
        <path
           style="opacity:1;fill:#ffff00;fill-opacity:0.99215686;stroke:none;stroke-width:1.98704481;stroke-linecap:round;stroke-linejoin:round;stroke-miterlimit:4;stroke-dasharray:none;stroke-dashoffset:0;stroke-opacity:1;paint-order:stroke fill markers"
           d="m 235.32031,364.15625 -14.91211,1.01563 v 74.40429 h 29.82618 v -74.40429 z"
           transform="scale(0.26458333)"
           id="rect4779-2-9"
           inkscape:connector-curvature="0"
           sodipodi:nodetypes="cccccc" />
        <path
           style="opacity:1;fill:#ffff00;fill-opacity:0.99215686;stroke:none;stroke-width:1.71212602;stroke-linecap:round;stroke-linejoin:round;stroke-miterlimit:4;stroke-dasharray:none;stroke-dashoffset:0;stroke-opacity:1;paint-order:stroke fill markers"
           d="m 235.32227,78.886719 -27.75,36.000001 3.78515,224.71875 23.96289,1.62891 23.9668,-1.62891 3.78516,-224.71875 z"
           transform="scale(0.26458333)"
           id="rect4500-9-2"
           inkscape:connector-curvature="0"
           sodipodi:nodetypes="ccccccc" />
        <path
           sodipodi:nodetypes="ccccc"
           inkscape:connector-curvature="0"
           id="rect4508-4-8"
           d="m 57.277732,117.6426 h 9.96881 l 1.058333,8.00423 H 56.219399 Z"
           style="opacity:1;fill:#ffff00;fill-opacity:0.99215686;stroke:none;stroke-width:0.47509792;stroke-linecap:round;stroke-linejoin:round;stroke-miterlimit:4;stroke-dasharray:none;stroke-dashoffset:0;stroke-opacity:1;paint-order:stroke fill markers" />
        <path
           sodipodi:nodetypes="ccccccc"
           inkscape:connector-curvature="0"
           id="rect4503-3-8"
           d="m 46.717857,90.568299 15.544281,1.058334 15.544281,-1.058334 v 5.499557 L 62.262138,95.009522 46.717857,96.067856 Z"
           style="opacity:1;fill:#ffff00;fill-opacity:0.99215686;stroke:none;stroke-width:0.45300001;stroke-linecap:round;stroke-linejoin:round;stroke-miterlimit:4;stroke-dasharray:none;stroke-dashoffset:0;stroke-opacity:1;paint-order:stroke fill markers" />
      </g>
      <g
         transform="matrix(0.45652173,0,0,0.45652173,-17.49953,10.247184)"
         id="text4943-5-8"
         style="font-style:normal;font-variant:normal;font-weight:600;font-stretch:normal;font-size:12.15027618px;line-height:1.25;font-family:'URW Gothic L';-inkscape-font-specification:'URW Gothic L Semi-Bold';letter-spacing:0px;word-spacing:0px;fill:#ffff00;fill-opacity:0.99215686;stroke:none;stroke-width:0.91127062"
         aria-label="ZAŽÍT">
        <path
           inkscape:connector-curvature="0"
           id="path5023-1-6"
           style="font-style:normal;font-variant:normal;font-weight:600;font-stretch:normal;font-family:'URW Gothic L';-inkscape-font-specification:'URW Gothic L Semi-Bold';fill:#ffff00;fill-opacity:0.99215686;stroke-width:0.91127062"
           d="m 107.80963,65.636772 v 1.409432 h 5.61343 v -1.591687 h -3.60863 l 3.37777,-5.892884 V 58.06715 h -5.20031 v 1.591686 h 3.21982 z" />
        <path
           inkscape:connector-curvature="0"
           id="path5025-7-8"
           style="font-style:normal;font-variant:normal;font-weight:600;font-stretch:normal;font-family:'URW Gothic L';-inkscape-font-specification:'URW Gothic L Semi-Bold';fill:#ffff00;fill-opacity:0.99215686;stroke-width:0.91127062"
           d="m 113.75112,67.046204 h 1.83469 l 0.99632,-2.320703 h 3.19552 l 0.95988,2.320703 h 1.83469 l -3.76659,-8.979054 h -1.31223 z m 3.43853,-3.912389 0.95987,-2.721662 0.95987,2.721662 z" />
        <path
           inkscape:connector-curvature="0"
           id="path5027-4-3"
           style="font-style:normal;font-variant:normal;font-weight:600;font-stretch:normal;font-family:'URW Gothic L';-inkscape-font-specification:'URW Gothic L Semi-Bold';fill:#ffff00;fill-opacity:0.99215686;stroke-width:0.91127062"
           d="m 122.87882,65.636772 v 1.409432 h 5.61343 v -1.591687 h -3.60863 l 3.37777,-5.892884 V 58.06715 h -5.20031 v 1.591686 h 3.21982 z m 0.38881,-10.048279 1.78609,1.676738 h 1.30008 l 1.76179,-1.676738 h -1.76179 l -0.64396,0.777618 -0.65612,-0.777618 z" />
        <path
           inkscape:connector-curvature="0"
           id="path5029-3-8"
           style="font-style:normal;font-variant:normal;font-weight:600;font-stretch:normal;font-family:'URW Gothic L';-inkscape-font-specification:'URW Gothic L Semi-Bold';fill:#ffff00;fill-opacity:0.99215686;stroke-width:0.91127062"
           d="m 129.56147,67.046204 h 1.66459 V 58.06715 h -1.66459 z m -0.15795,-9.574418 2.75811,-1.458033 -0.65611,-1.117826 -2.72166,1.628137 z" />
        <path
           inkscape:connector-curvature="0"
           id="path5031-1-3"
           style="font-style:normal;font-variant:normal;font-weight:600;font-stretch:normal;font-family:'URW Gothic L';-inkscape-font-specification:'URW Gothic L Semi-Bold';fill:#ffff00;fill-opacity:0.99215686;stroke-width:0.91127062"
           d="m 133.87843,67.046204 h 1.66459 v -7.387368 h 1.66459 V 58.06715 h -4.99377 v 1.591686 h 1.66459 z" />
      </g>
      <g
         transform="matrix(0.45652173,0,0,0.45652173,-17.49953,10.247184)"
         id="text4943-2-4-3"
         style="font-style:normal;font-variant:normal;font-weight:600;font-stretch:normal;font-size:12.15027618px;line-height:1.25;font-family:'URW Gothic L';-inkscape-font-specification:'URW Gothic L Semi-Bold';letter-spacing:0px;word-spacing:0px;fill:#ffff00;fill-opacity:0.99215686;stroke:none;stroke-width:0.91127062"
         aria-label="HISTORII">
        <path
           inkscape:connector-curvature="0"
           id="path5006-6-3"
           style="font-style:normal;font-variant:normal;font-weight:600;font-stretch:normal;font-family:'URW Gothic L';-inkscape-font-specification:'URW Gothic L Semi-Bold';fill:#ffff00;fill-opacity:0.99215686;stroke-width:0.91127062"
           d="m 91.823732,87.363144 h 1.664587 v -3.766586 h 3.207673 v 3.766586 H 98.36058 V 78.38409 h -1.664588 v 3.620782 H 93.488319 V 78.38409 h -1.664587 z" />
        <path
           inkscape:connector-curvature="0"
           id="path5008-9-8"
           style="font-style:normal;font-variant:normal;font-weight:600;font-stretch:normal;font-family:'URW Gothic L';-inkscape-font-specification:'URW Gothic L Semi-Bold';fill:#ffff00;fill-opacity:0.99215686;stroke-width:0.91127062"
           d="m 100.08212,87.363144 h 1.66459 V 78.38409 h -1.66459 z" />
        <path
           inkscape:connector-curvature="0"
           id="path5010-4-0"
           style="font-style:normal;font-variant:normal;font-weight:600;font-stretch:normal;font-family:'URW Gothic L';-inkscape-font-specification:'URW Gothic L Semi-Bold';fill:#ffff00;fill-opacity:0.99215686;stroke-width:0.91127062"
           d="m 102.81954,84.799436 c 0.0607,0.704716 0.21871,1.154276 0.58321,1.628137 0.53462,0.692565 1.42159,1.093525 2.36931,1.093525 1.61598,0 2.86746,-1.251479 2.86746,-2.879616 0,-0.741167 -0.27945,-1.385131 -0.80192,-1.871142 -0.35235,-0.328058 -0.64396,-0.486012 -1.51878,-0.814069 -0.85052,-0.315907 -0.87482,-0.328057 -0.99632,-0.400959 -0.32806,-0.206555 -0.49816,-0.486011 -0.49816,-0.814069 0,-0.534612 0.37665,-0.91127 0.92342,-0.91127 0.55891,0 0.89912,0.340207 0.94772,0.947721 h 1.72534 c -0.0365,-0.680415 -0.19441,-1.142126 -0.55891,-1.591686 -0.48602,-0.607514 -1.26363,-0.959872 -2.102,-0.959872 -1.44589,0 -2.61231,1.129976 -2.61231,2.551558 0,1.129976 0.66826,1.992646 1.87114,2.442206 1.20288,0.44956 1.27578,0.486011 1.55524,0.692565 0.2673,0.218705 0.41311,0.534613 0.41311,0.911271 0,0.643965 -0.49817,1.093525 -1.21503,1.093525 -0.74117,0 -1.14213,-0.364508 -1.21503,-1.117825 z" />
        <path
           inkscape:connector-curvature="0"
           id="path5012-22-4"
           style="font-style:normal;font-variant:normal;font-weight:600;font-stretch:normal;font-family:'URW Gothic L';-inkscape-font-specification:'URW Gothic L Semi-Bold';fill:#ffff00;fill-opacity:0.99215686;stroke-width:0.91127062"
           d="m 110.71153,87.363144 h 1.66458 v -7.387368 h 1.66459 V 78.38409 h -4.99376 v 1.591686 h 1.66459 z" />
        <path
           inkscape:connector-curvature="0"
           id="path5014-6-7"
           style="font-style:normal;font-variant:normal;font-weight:600;font-stretch:normal;font-family:'URW Gothic L';-inkscape-font-specification:'URW Gothic L Semi-Bold';fill:#ffff00;fill-opacity:0.99215686;stroke-width:0.91127062"
           d="m 119.16717,78.226136 c -2.67306,0 -4.73861,2.029096 -4.73861,4.653556 0,2.588009 2.08985,4.641406 4.72646,4.641406 2.61231,0 4.62925,-2.029097 4.62925,-4.653556 0,-2.563709 -2.05339,-4.641406 -4.6171,-4.641406 z m -0.0243,1.603837 c 1.66459,0 2.96467,1.33653 2.96467,3.061869 0,1.72534 -1.26363,3.025419 -2.96467,3.025419 -1.70104,0 -3.03757,-1.33653 -3.03757,-3.037569 0,-1.737489 1.31223,-3.049719 3.03757,-3.049719 z" />
        <path
           inkscape:connector-curvature="0"
           id="path5016-4-6"
           style="font-style:normal;font-variant:normal;font-weight:600;font-stretch:normal;font-family:'URW Gothic L';-inkscape-font-specification:'URW Gothic L Semi-Bold';fill:#ffff00;fill-opacity:0.99215686;stroke-width:0.91127062"
           d="m 125.09461,87.363144 h 1.66458 v -3.438528 l 2.35716,3.438528 h 2.05339 l -2.43005,-3.317025 c 0.69256,-0.170104 1.03277,-0.328058 1.42158,-0.656115 0.60751,-0.522462 0.92342,-1.239329 0.92342,-2.126299 0,-0.91127 -0.32806,-1.688888 -0.94772,-2.21135 -0.58321,-0.498161 -1.22718,-0.668265 -2.45436,-0.668265 h -2.588 z m 1.66458,-4.690007 v -2.697361 h 0.74117 c 0.77762,0 1.20288,0.08505 1.47018,0.315907 0.29161,0.230855 0.43741,0.583213 0.43741,1.020623 0,0.947722 -0.54676,1.360831 -1.83469,1.360831 z" />
        <path
           inkscape:connector-curvature="0"
           id="path5018-1-8"
           style="font-style:normal;font-variant:normal;font-weight:600;font-stretch:normal;font-family:'URW Gothic L';-inkscape-font-specification:'URW Gothic L Semi-Bold';fill:#ffff00;fill-opacity:0.99215686;stroke-width:0.91127062"
           d="m 132.14271,87.363144 h 1.66459 V 78.38409 h -1.66459 z" />
        <path
           inkscape:connector-curvature="0"
           id="path5020-2-9"
           style="font-style:normal;font-variant:normal;font-weight:600;font-stretch:normal;font-family:'URW Gothic L';-inkscape-font-specification:'URW Gothic L Semi-Bold';fill:#ffff00;fill-opacity:0.99215686;stroke-width:0.91127062"
           d="m 135.53625,87.363144 h 1.66459 V 78.38409 h -1.66459 z" />
      </g>
    </g>
  </g>
</svg>
