<?xml version="1.0" encoding="UTF-8" standalone="no"?>
<!-- Created with Inkscape (http://www.inkscape.org/) -->

<svg
   xmlns:dc="http://purl.org/dc/elements/1.1/"
   xmlns:cc="http://creativecommons.org/ns#"
   xmlns:rdf="http://www.w3.org/1999/02/22-rdf-syntax-ns#"
   xmlns:svg="http://www.w3.org/2000/svg"
   xmlns="http://www.w3.org/2000/svg"
   xmlns:sodipodi="http://sodipodi.sourceforge.net/DTD/sodipodi-0.dtd"
   xmlns:inkscape="http://www.inkscape.org/namespaces/inkscape"
   width="200"
   height="200"
   viewBox="0 0 52.916665 52.916668"
   version="1.1"
   id="svg4620"
   inkscape:version="0.92.1 r15371"
   sodipodi:docname="person.svg">
  <defs
     id="defs4614" />
  <sodipodi:namedview
     id="base"
     pagecolor="#ffffff"
     bordercolor="#666666"
     borderopacity="1.0"
     inkscape:pageopacity="0.0"
     inkscape:pageshadow="2"
     inkscape:zoom="0.35"
     inkscape:cx="-114.28571"
     inkscape:cy="560"
     inkscape:document-units="mm"
     inkscape:current-layer="layer1"
     showgrid="false"
     units="px"
     inkscape:window-width="1920"
     inkscape:window-height="1001"
     inkscape:window-x="-9"
     inkscape:window-y="-9"
     inkscape:window-maximized="1" />
  <metadata
     id="metadata4617">
    <rdf:RDF>
      <cc:Work
         rdf:about="">
        <dc:format>image/svg+xml</dc:format>
        <dc:type
           rdf:resource="http://purl.org/dc/dcmitype/StillImage" />
        <dc:title></dc:title>
      </cc:Work>
    </rdf:RDF>
  </metadata>
  <g
     inkscape:label="Vrstva 1"
     inkscape:groupmode="layer"
     id="layer1"
     transform="translate(0,-244.08332)">
    <g
       transform="matrix(0.71428569,0,0,0.71428569,-62.644074,123.95789)"
       id="g5875">
      <rect
         rx="9"
         y="168.17561"
         x="87.701706"
         height="74.083336"
         width="74.083336"
         id="rect4531-2-4"
         style="opacity:1;fill:#000000;fill-opacity:1;stroke:none;stroke-width:5.55499983;stroke-linecap:round;stroke-linejoin:round;stroke-miterlimit:4;stroke-dasharray:none;stroke-dashoffset:0;stroke-opacity:1;paint-order:stroke fill markers" />
      <g
         transform="matrix(0.99965475,0,0,0.99965475,0.04295671,-2.044451)"
         id="g5869">
        <path
           inkscape:connector-curvature="0"
           style="opacity:1;vector-effect:none;fill:#ffff19;fill-opacity:1;fill-rule:nonzero;stroke:none;stroke-width:4.68839979;stroke-linecap:round;stroke-linejoin:round;stroke-miterlimit:4;stroke-dasharray:none;stroke-dashoffset:9.07086658;stroke-opacity:1;paint-order:stroke fill markers"
           d="m 124.42186,199.64983 c -0.98266,0 -1.94649,0.089 -2.88716,0.2558 0.80817,0.57634 1.8007,0.91673 2.88716,0.91673 1.08646,0 2.07899,-0.34039 2.88716,-0.91673 -0.94067,-0.1668 -1.9045,-0.2558 -2.88716,-0.2558 z m -8.80411,2.52284 c -5.65189,3.47688 -9.48263,10.19518 -9.48263,17.91518 0,2.80747 0.50677,4.98309 1.42317,6.66833 l 4.04265,-13.92215 c 0.189,-0.68568 0.81217,-1.16116 1.52342,-1.1622 1.06508,-0.003 1.82883,1.02621 1.51774,2.04484 l -0.53382,17.77772 c 2.93629,0.8071 6.48691,0.96377 10.31358,0.96377 3.82302,0 7.37066,-0.1561 10.30532,-0.96118 l -0.53382,-17.78031 c -0.31109,-1.01863 0.45265,-2.04784 1.51773,-2.04484 0.71126,0.001 1.33443,0.47652 1.52343,1.1622 l 4.04574,13.93197 c 0.91974,-1.68659 1.42834,-3.86529 1.42834,-6.67815 0,-7.72 -3.83074,-14.4383 -9.48263,-17.91518 -1.97306,2.74706 -5.1912,4.55011 -8.80411,4.55011 -3.61291,0 -6.83104,-1.80305 -8.80411,-4.55011 z"
           id="path5775" />
        <circle
           style="opacity:1;vector-effect:none;fill:#ffff19;fill-opacity:1;fill-rule:nonzero;stroke:none;stroke-width:5.9000001;stroke-linecap:round;stroke-linejoin:round;stroke-miterlimit:4;stroke-dasharray:none;stroke-dashoffset:9.07086658;stroke-opacity:1;paint-order:stroke fill markers"
           id="path5771"
           cx="124.42191"
           cy="193.76814"
           r="7.8884225" />
      </g>
    </g>
  </g>
</svg>
