<?xml version="1.0" encoding="UTF-8" standalone="no"?>
<!-- Created with Inkscape (http://www.inkscape.org/) -->

<svg
   xmlns:dc="http://purl.org/dc/elements/1.1/"
   xmlns:cc="http://creativecommons.org/ns#"
   xmlns:rdf="http://www.w3.org/1999/02/22-rdf-syntax-ns#"
   xmlns:svg="http://www.w3.org/2000/svg"
   xmlns="http://www.w3.org/2000/svg"
   xmlns:sodipodi="http://sodipodi.sourceforge.net/DTD/sodipodi-0.dtd"
   xmlns:inkscape="http://www.inkscape.org/namespaces/inkscape"
   width="200"
   height="200"
   viewBox="0 0 52.916665 52.916668"
   version="1.1"
   id="svg4620"
   inkscape:version="0.92.1 r15371"
   sodipodi:docname="tel.svg">
  <defs
     id="defs4614" />
  <sodipodi:namedview
     id="base"
     pagecolor="#ffffff"
     bordercolor="#666666"
     borderopacity="1.0"
     inkscape:pageopacity="0.0"
     inkscape:pageshadow="2"
     inkscape:zoom="0.35"
     inkscape:cx="-114.28571"
     inkscape:cy="560"
     inkscape:document-units="mm"
     inkscape:current-layer="layer1"
     showgrid="false"
     units="px"
     inkscape:window-width="1920"
     inkscape:window-height="1001"
     inkscape:window-x="-9"
     inkscape:window-y="-9"
     inkscape:window-maximized="1" />
  <metadata
     id="metadata4617">
    <rdf:RDF>
      <cc:Work
         rdf:about="">
        <dc:format>image/svg+xml</dc:format>
        <dc:type
           rdf:resource="http://purl.org/dc/dcmitype/StillImage" />
        <dc:title></dc:title>
      </cc:Work>
    </rdf:RDF>
  </metadata>
  <g
     inkscape:label="Vrstva 1"
     inkscape:groupmode="layer"
     id="layer1"
     transform="translate(0,-244.08332)">
    <g
       transform="matrix(0.71428569,0,0,0.71428569,-62.644074,123.95789)"
       id="g6174">
      <rect
         rx="9"
         y="168.17561"
         x="87.701706"
         height="74.083336"
         width="74.083336"
         id="rect4531-2-4"
         style="opacity:1;fill:#000000;fill-opacity:1;stroke:none;stroke-width:5.55499983;stroke-linecap:round;stroke-linejoin:round;stroke-miterlimit:4;stroke-dasharray:none;stroke-dashoffset:0;stroke-opacity:1;paint-order:stroke fill markers" />
      <path
         inkscape:connector-curvature="0"
         id="rect6148"
         d="m 110.599,190.19544 c -1.2718,-0.73633 -2.88862,-0.30521 -3.62496,0.9666 l -2.99109,5.16621 c -0.51237,0.88498 -0.45797,1.93625 0.0501,2.74239 3.09121,9.49239 11.10035,15.24041 18.49931,18.34757 3.7766,1.58597 7.45316,2.52331 10.57768,2.93812 1.56226,0.20742 2.98154,0.28817 4.29275,0.21647 1.07485,-0.0588 2.05148,-0.10091 3.21962,-0.64404 0.76454,-0.11831 1.47004,-0.56869 1.88961,-1.29337 l 2.99108,-5.16621 c 0.73633,-1.27181 0.30521,-2.88863 -0.9666,-3.62496 l -8.11613,-4.699 c -1.27182,-0.73635 -2.88863,-0.30522 -3.62497,0.96659 l -2.99108,5.16621 c -0.0441,0.0763 -0.0835,0.15379 -0.11926,0.23224 -1.31414,-0.37634 -2.69307,-0.85057 -4.0719,-1.4296 -3.34547,-1.40492 -6.61693,-3.3767 -9.23664,-5.95916 0.11682,-0.13177 0.22233,-0.27732 0.31414,-0.43588 l 2.99108,-5.16621 c 0.73633,-1.27181 0.30546,-2.8885 -0.96635,-3.62483 z"
         style="opacity:1;vector-effect:none;fill:#fffd00;fill-opacity:1;fill-rule:nonzero;stroke:none;stroke-width:1.55128348;stroke-linecap:round;stroke-linejoin:round;stroke-miterlimit:4;stroke-dasharray:none;stroke-dashoffset:9.07086658;stroke-opacity:1;paint-order:stroke fill markers" />
    </g>
  </g>
</svg>
